<svg width="840" height="880" viewBox="0 0 840 880" xmlns="http://www.w3.org/2000/svg" font-family="-apple-system, BlinkMacSystemFont, 'Segoe UI', Roboto, Helvetica, Arial, sans-serif">
<defs>
  <!-- Arrow marker -->
  <marker id="arrow" viewBox="0 0 10 10" refX="7" refY="5" markerWidth="6" markerHeight="6" orient="auto-start-reverse">
    <path d="M1 1.5L8 5L1 8.5" fill="none" stroke="#555" stroke-width="1.4" stroke-linecap="round" stroke-linejoin="round"/>
  </marker>
  <marker id="arrow-blue" viewBox="0 0 10 10" refX="7" refY="5" markerWidth="6" markerHeight="6" orient="auto-start-reverse">
    <path d="M1 1.5L8 5L1 8.5" fill="none" stroke="#185FA5" stroke-width="1.4" stroke-linecap="round" stroke-linejoin="round"/>
  </marker>
  <marker id="arrow-purple" viewBox="0 0 10 10" refX="7" refY="5" markerWidth="6" markerHeight="6" orient="auto-start-reverse">
    <path d="M1 1.5L8 5L1 8.5" fill="none" stroke="#534AB7" stroke-width="1.4" stroke-linecap="round" stroke-linejoin="round"/>
  </marker>
  <!-- Subtle card drop shadow -->
  <filter id="shadow" x="-2%" y="-2%" width="104%" height="106%" filterUnits="userSpaceOnUse">
    <feDropShadow dx="0" dy="1.5" stdDeviation="2" flood-opacity="0.06"/>
  </filter>
</defs>

<!-- Pure White Background -->
<rect width="840" height="880" fill="#FFFFFF"/>

<!-- ========================================== -->
<!-- 1. DATA INGESTION & ACQUISITION LAYER      -->
<!-- ========================================== -->
<rect x="40" y="24" width="760" height="78" rx="8" fill="#F8FAFC" stroke="#CBD5E1" stroke-width="1" filter="url(#shadow)"/>
<rect x="40" y="24" width="6" height="78" rx="3" fill="#0284C7"/>
<text x="58" y="44" font-size="12" font-weight="700" fill="#0369A1" letter-spacing="0.5">1. DATA INGESTION &amp; ACQUISITION LAYER</text>

<!-- Sub-boxes -->
<rect x="58" y="52" width="230" height="42" rx="6" fill="#E0F2FE" stroke="#0284C7" stroke-width="0.8"/>
<text x="173" y="68" text-anchor="middle" font-size="11" font-weight="700" fill="#0369A1">UNSW-NB15 Benchmark</text>
<text x="173" y="83" text-anchor="middle" font-size="9.5" fill="#0284C7">175,341 flows · 49 raw features · 9 attacks</text>

<rect x="305" y="52" width="230" height="42" rx="6" fill="#E0F2FE" stroke="#0284C7" stroke-width="0.8"/>
<text x="420" y="68" text-anchor="middle" font-size="11" font-weight="700" fill="#0369A1">Live Packet Capture (Scapy)</text>
<text x="420" y="83" text-anchor="middle" font-size="9.5" fill="#0284C7">Npcap NDIS driver · 5-tuple aggregation</text>

<rect x="552" y="52" width="230" height="42" rx="6" fill="#E0F2FE" stroke="#0284C7" stroke-width="0.8"/>
<text x="667" y="68" text-anchor="middle" font-size="11" font-weight="700" fill="#0369A1">Custom CSV Ingestion</text>
<text x="667" y="83" text-anchor="middle" font-size="9.5" fill="#0284C7">Batch streaming · live upload validation</text>

<!-- Connector 1 -> 2 -->
<line x1="420" y1="102" x2="420" y2="124" stroke="#64748B" stroke-width="1.3" marker-end="url(#arrow)"/>
<text x="428" y="116" font-size="9" font-style="italic" fill="#64748B">raw network flow records</text>

<!-- ========================================== -->
<!-- 2. FEATURE ENGINEERING & PREPROCESSING     -->
<!-- ========================================== -->
<rect x="40" y="124" width="760" height="74" rx="8" fill="#FAF5FF" stroke="#E9D5FF" stroke-width="1" filter="url(#shadow)"/>
<rect x="40" y="124" width="6" height="74" rx="3" fill="#9333EA"/>
<text x="58" y="143" font-size="12" font-weight="700" fill="#7E22CE" letter-spacing="0.5">2. FEATURE ENGINEERING &amp; PREPROCESSING PIPELINE</text>

<!-- 4 Sequential Boxes -->
<rect x="58" y="150" width="165" height="38" rx="5" fill="#F3E8FF" stroke="#A855F7" stroke-width="0.8"/>
<text x="140" y="165" text-anchor="middle" font-size="10.5" font-weight="700" fill="#6B21A8">Imputation</text>
<text x="140" y="178" text-anchor="middle" font-size="9" fill="#7E22CE">Median / Mode fill</text>

<line x1="223" y1="169" x2="243" y2="169" stroke="#9333EA" stroke-width="1.1" marker-end="url(#arrow-purple)"/>

<rect x="245" y="150" width="165" height="38" rx="5" fill="#F3E8FF" stroke="#A855F7" stroke-width="0.8"/>
<text x="327" y="165" text-anchor="middle" font-size="10.5" font-weight="700" fill="#6B21A8">Label Encoding</text>
<text x="327" y="178" text-anchor="middle" font-size="9" fill="#7E22CE">proto, service, state</text>

<line x1="410" y1="169" x2="430" y2="169" stroke="#9333EA" stroke-width="1.1" marker-end="url(#arrow-purple)"/>

<rect x="432" y="150" width="165" height="38" rx="5" fill="#F3E8FF" stroke="#A855F7" stroke-width="0.8"/>
<text x="514" y="165" text-anchor="middle" font-size="10.5" font-weight="700" fill="#6B21A8">StandardScaler</text>
<text x="514" y="178" text-anchor="middle" font-size="9" fill="#7E22CE">Zero mean, unit variance</text>

<line x1="597" y1="169" x2="617" y2="169" stroke="#9333EA" stroke-width="1.1" marker-end="url(#arrow-purple)"/>

<rect x="619" y="150" width="165" height="38" rx="5" fill="#F3E8FF" stroke="#A855F7" stroke-width="0.8"/>
<text x="701" y="165" text-anchor="middle" font-size="10.5" font-weight="700" fill="#6B21A8">Feature Selection</text>
<text x="701" y="178" text-anchor="middle" font-size="9" fill="#7E22CE">Variance filter → d = 39</text>

<!-- Connector 2 -> 3 (Split to 3 models) -->
<path d="M420 198 L420 216 M180 216 L660 216 M180 216 L180 236 M420 216 L420 236 M660 216 L660 236" fill="none" stroke="#64748B" stroke-width="1.2" marker-end="url(#arrow)"/>
<text x="428" y="210" font-size="9" font-style="italic" fill="#64748B">normalized feature vectors x ∈ ℝ³⁹</text>

<!-- ========================================== -->
<!-- 3. TRI-CORE HYBRID MACHINE LEARNING CORE   -->
<!-- ========================================== -->
<rect x="40" y="236" width="760" height="196" rx="8" fill="#F8FAFC" stroke="#CBD5E1" stroke-width="1" filter="url(#shadow)"/>
<rect x="40" y="236" width="6" height="196" rx="3" fill="#0F172A"/>
<text x="58" y="255" font-size="12" font-weight="700" fill="#0F172A" letter-spacing="0.5">3. TRI-CORE HYBRID AI DETECTION ENGINE</text>

<!-- Model 1: Deep Autoencoder -->
<rect x="58" y="264" width="232" height="156" rx="6" fill="#F0FDFA" stroke="#0D9488" stroke-width="1"/>
<rect x="58" y="264" width="232" height="28" rx="6" fill="#CCFBF1"/>
<text x="174" y="282" text-anchor="middle" font-size="11.5" font-weight="700" fill="#0F766E">Deep Denoising Autoencoder</text>
<text x="72" y="306" font-size="9.5" font-weight="600" fill="#115E59">• Paradigm: <tspan font-weight="400">Semi-Supervised (Normal y=0)</tspan></text>
<text x="72" y="322" font-size="9.5" font-weight="600" fill="#115E59">• Encoder: <tspan font-weight="400">39 → 128 → 64 → 32 → 8 (Latent)</tspan></text>
<text x="72" y="338" font-size="9.5" font-weight="600" fill="#115E59">• Decoder: <tspan font-weight="400">8 → 32 → 64 → 128 → 39</tspan></text>
<text x="72" y="354" font-size="9.5" font-weight="600" fill="#115E59">• Denoising: <tspan font-weight="400">Gaussian noise (σ = 0.05)</tspan></text>
<text x="72" y="370" font-size="9.5" font-weight="600" fill="#115E59">• Objective: <tspan font-weight="400">MSE Loss + L1 Sparsity</tspan></text>
<text x="72" y="386" font-size="9.5" font-weight="600" fill="#115E59">• Anomaly Metric: <tspan font-weight="400">Reconstruction Error ε &gt; τ</tspan></text>
<rect x="72" y="394" width="204" height="18" rx="4" fill="#0D9488"/>
<text x="174" y="407" text-anchor="middle" font-size="9.5" font-weight="700" fill="#FFFFFF">Accuracy: 89.44% · ROC-AUC: 0.9767</text>

<!-- Model 2: XGBoost Classifier -->
<rect x="304" y="264" width="232" height="156" rx="6" fill="#FFF7ED" stroke="#EA580C" stroke-width="1"/>
<rect x="304" y="264" width="232" height="28" rx="6" fill="#FFEDD5"/>
<text x="420" y="282" text-anchor="middle" font-size="11.5" font-weight="700" fill="#C2410C">XGBoost Gradient Boosting</text>
<text x="318" y="306" font-size="9.5" font-weight="600" fill="#9A3412">• Paradigm: <tspan font-weight="400">Supervised Classification</tspan></text>
<text x="318" y="322" font-size="9.5" font-weight="600" fill="#9A3412">• Objective: <tspan font-weight="400">binary:logistic log-loss</tspan></text>
<text x="318" y="338" font-size="9.5" font-weight="600" fill="#9A3412">• Tuning: <tspan font-weight="400">GridSearchCV (27 combinations)</tspan></text>
<text x="318" y="354" font-size="9.5" font-weight="600" fill="#9A3412">• Tree Architecture: <tspan font-weight="400">n_est=500, depth=8</tspan></text>
<text x="318" y="370" font-size="9.5" font-weight="600" fill="#9A3412">• Learning Rate: <tspan font-weight="400">η = 0.20 · scale_pos=1.57</tspan></text>
<text x="318" y="386" font-size="9.5" font-weight="600" fill="#9A3412">• Validation: <tspan font-weight="400">3-Fold Stratified K-Fold</tspan></text>
<rect x="318" y="394" width="204" height="18" rx="4" fill="#EA580C"/>
<text x="420" y="407" text-anchor="middle" font-size="9.5" font-weight="700" fill="#FFFFFF">Accuracy: 89.77% · ROC-AUC: 0.9835</text>

<!-- Model 3: Isolation Forest Hybrid -->
<rect x="550" y="264" width="232" height="156" rx="6" fill="#F0FDF4" stroke="#16A34A" stroke-width="1"/>
<rect x="550" y="264" width="232" height="28" rx="6" fill="#DCFCE7"/>
<text x="666" y="282" text-anchor="middle" font-size="11.5" font-weight="700" fill="#15803D">Isolation Forest Ensemble</text>
<text x="564" y="306" font-size="9.5" font-weight="600" fill="#166534">• Paradigm: <tspan font-weight="400">Unsupervised Spatial Isolation</tspan></text>
<text x="564" y="322" font-size="9.5" font-weight="600" fill="#166534">• Tree Estimators: <tspan font-weight="400">200 Isolation Trees</tspan></text>
<text x="564" y="338" font-size="9.5" font-weight="600" fill="#166534">• Contamination: <tspan font-weight="400">auto (empirical quantile)</tspan></text>
<text x="564" y="354" font-size="9.5" font-weight="600" fill="#166534">• Meta-Feature: <tspan font-weight="400">IF score + AE error feature</tspan></text>
<text x="564" y="370" font-size="9.5" font-weight="600" fill="#166534">• Hybrid Stacking: <tspan font-weight="400">XGB Meta-Classifier blend</tspan></text>
<text x="564" y="386" font-size="9.5" font-weight="600" fill="#166534">• Zero-Day Robust: <tspan font-weight="400">Labels not strictly required</tspan></text>
<rect x="564" y="394" width="204" height="18" rx="4" fill="#16A34A"/>
<text x="666" y="407" text-anchor="middle" font-size="9.5" font-weight="700" fill="#FFFFFF">Accuracy: 90.43% · ROC-AUC: 0.9833</text>

<!-- Connector 3 -> 4 (Merge to 1) -->
<path d="M180 432 L180 450 M420 432 L420 450 M660 432 L660 450 M180 450 L660 450 M420 450 L420 468" fill="none" stroke="#64748B" stroke-width="1.2" marker-end="url(#arrow)"/>
<text x="428" y="460" font-size="9" font-style="italic" fill="#64748B">model scores &amp; reconstruction residuals</text>

<!-- ========================================== -->
<!-- 4. THRESHOLD CALIBRATION & DECISION FUSION -->
<!-- ========================================== -->
<rect x="40" y="468" width="760" height="72" rx="8" fill="#FEFCE8" stroke="#FDE047" stroke-width="1" filter="url(#shadow)"/>
<rect x="40" y="468" width="6" height="72" rx="3" fill="#CA8A04"/>
<text x="58" y="488" font-size="12" font-weight="700" fill="#A16207" letter-spacing="0.5">4. PRIOR-ADJUSTED THRESHOLD CALIBRATION &amp; ENSEMBLE FUSION</text>

<rect x="58" y="496" width="724" height="34" rx="5" fill="#FEF08A" stroke="#EAB308" stroke-width="0.8"/>
<text x="420" y="511" text-anchor="middle" font-size="10.5" font-weight="700" fill="#713F12">
  Prior-Adjusted Cutoffs:  τ_AE = 0.327  ·  τ_XGB = 0.592  ·  τ_IF = 0.345
</text>
<text x="420" y="524" text-anchor="middle" font-size="9.5" fill="#854D0E">
  Weighted Meta-Decision Fusion: ŷ = 1  if  [0.35 · 𝟙(ε &gt; τ_AE) + 0.40 · 𝟙(p_XGB &gt; τ_XGB) + 0.25 · 𝟙(s_IF &gt; τ_IF)] ≥ 0.50
</text>

<!-- Connector 4 -> 5 -->
<line x1="420" y1="540" x2="420" y2="560" stroke="#64748B" stroke-width="1.3" marker-end="url(#arrow)"/>
<text x="428" y="552" font-size="9" font-style="italic" fill="#64748B">binary decision &amp; calibrated anomaly score</text>

<!-- ========================================== -->
<!-- 5. DETECTION OUTPUT & SEVERITY GRADING     -->
<!-- ========================================== -->
<rect x="40" y="560" width="760" height="78" rx="8" fill="#FEF2F2" stroke="#FECACA" stroke-width="1" filter="url(#shadow)"/>
<rect x="40" y="560" width="6" height="78" rx="3" fill="#DC2626"/>
<text x="58" y="580" font-size="12" font-weight="700" fill="#B91C1C" letter-spacing="0.5">5. DETECTION OUTPUT &amp; THREAT SEVERITY CLASSIFICATION</text>

<rect x="58" y="588" width="230" height="42" rx="6" fill="#F0FDF4" stroke="#16A34A" stroke-width="0.8"/>
<text x="173" y="605" text-anchor="middle" font-size="11" font-weight="700" fill="#15803D">Class 0: Normal Traffic</text>
<text x="173" y="620" text-anchor="middle" font-size="9.5" fill="#166534">Reconstruction residual within nominal bounds</text>

<rect x="305" y="588" width="230" height="42" rx="6" fill="#FEF2F2" stroke="#DC2626" stroke-width="0.8"/>
<text x="420" y="605" text-anchor="middle" font-size="11" font-weight="700" fill="#B91C1C">Severity Classifier</text>
<text x="420" y="620" text-anchor="middle" font-size="9.5" fill="#991B1B">LOW  ·  MEDIUM  ·  HIGH  ·  CRITICAL</text>

<rect x="552" y="588" width="230" height="42" rx="6" fill="#F8FAFC" stroke="#64748B" stroke-width="0.8"/>
<text x="667" y="605" text-anchor="middle" font-size="11" font-weight="700" fill="#334155">Security Incident Log</text>
<text x="667" y="620" text-anchor="middle" font-size="9.5" fill="#475569">CSV telemetry · audit logs · alerts</text>

<!-- Connector 5 -> 6 -->
<line x1="420" y1="638" x2="420" y2="658" stroke="#64748B" stroke-width="1.3" marker-end="url(#arrow)"/>
<text x="428" y="650" font-size="9" font-style="italic" fill="#64748B">real-time incident events &amp; metrics</text>

<!-- ========================================== -->
<!-- 6. SOC VISUALIZATION DASHBOARD             -->
<!-- ========================================== -->
<rect x="40" y="658" width="760" height="74" rx="8" fill="#F0FDF4" stroke="#BBF7D0" stroke-width="1" filter="url(#shadow)"/>
<rect x="40" y="658" width="6" height="74" rx="3" fill="#059669"/>
<text x="58" y="677" font-size="12" font-weight="700" fill="#047857" letter-spacing="0.5">6. STREAMLIT SOC ANALYTICS DASHBOARD (24/7 CLOUD DEPLOYMENT)</text>

<rect x="58" y="684" width="724" height="40" rx="5" fill="#DCFCE7" stroke="#10B981" stroke-width="0.8"/>
<text x="420" y="700" text-anchor="middle" font-size="10.5" font-weight="700" fill="#065F46">
  10 Interactive SOC Analytics Panels  ·  Live Streamlit Cloud Deployment
</text>
<text x="420" y="715" text-anchor="middle" font-size="9.5" fill="#047857">
  Live Packet Monitor  ·  ROC &amp; PR Curves  ·  Confusion Matrices  ·  Correlation Heatmaps  ·  System Health  ·  Instant CSV Download
</text>

<!-- ========================================== -->
<!-- BENCHMARK PERFORMANCE TABLE STRIP           -->
<!-- ========================================== -->
<rect x="40" y="746" width="760" height="52" rx="6" fill="#F8FAFC" stroke="#E2E8F0" stroke-width="1"/>
<text x="58" y="763" font-size="10.5" font-weight="700" fill="#1E293B">Benchmark Evaluation Summary (UNSW-NB15 Test Set):</text>

<rect x="58" y="770" width="165" height="20" rx="4" fill="#0D9488"/>
<text x="140" y="784" text-anchor="middle" font-size="9.5" font-weight="700" fill="#FFFFFF">Autoencoder: 89.44% | 0.9767</text>

<rect x="238" y="770" width="165" height="20" rx="4" fill="#EA580C"/>
<text x="320" y="784" text-anchor="middle" font-size="9.5" font-weight="700" fill="#FFFFFF">XGBoost: 89.77% | 0.9835</text>

<rect x="418" y="770" width="165" height="20" rx="4" fill="#16A34A"/>
<text x="500" y="784" text-anchor="middle" font-size="9.5" font-weight="700" fill="#FFFFFF">IF Ensemble: 90.43% | 0.9833</text>

<rect x="598" y="770" width="184" height="20" rx="4" fill="#1E293B"/>
<text x="690" y="784" text-anchor="middle" font-size="9.5" font-weight="700" fill="#38BDF8">Top ROC-AUC: 0.9835 · F1: 92.6%</text>

<!-- Divider line -->
<line x1="40" y1="816" x2="800" y2="816" stroke="#E2E8F0" stroke-width="0.8"/>

<!-- Figure Caption -->
<text x="420" y="836" text-anchor="middle" font-size="10.5" font-weight="700" fill="#1E293B">Fig. 1.  System architecture of the AI-Driven Network Traffic Anomaly Detection Framework</text>
<text x="420" y="852" text-anchor="middle" font-size="9.5" fill="#64748B">End-to-end 6-layer pipeline from raw flow acquisition to tri-core machine learning inference, prior-adjusted thresholding, and SOC alerting.</text>

</svg>
